<svg width="35" height="35" viewBox="0 0 35 35" fill="none" xmlns="http://www.w3.org/2000/svg">
<path d="M7.29163 4.375H26.25C27.4103 4.375 28.5231 4.83594 29.3436 5.65641C30.164 6.47688 30.625 7.58968 30.625 8.75V21.875C30.625 23.0353 30.164 24.1481 29.3436 24.9686C28.5231 25.7891 27.4103 26.25 26.25 26.25H19.562L14.156 31.656C13.9521 31.8599 13.6922 31.9988 13.4094 32.055C13.1265 32.1113 12.8334 32.0824 12.5669 31.972C12.3005 31.8617 12.0727 31.6748 11.9125 31.435C11.7523 31.1953 11.6667 30.9134 11.6666 30.625V26.25H7.29163C6.1313 26.25 5.01851 25.7891 4.19803 24.9686C3.37756 24.1481 2.91663 23.0353 2.91663 21.875V8.75C2.91663 7.58968 3.37756 6.47688 4.19803 5.65641C5.01851 4.83594 6.1313 4.375 7.29163 4.375ZM26.25 5.83333H7.29163C6.51808 5.83333 5.77621 6.14062 5.22923 6.6876C4.68225 7.23459 4.37496 7.97645 4.37496 8.75V21.875C4.37496 22.6485 4.68225 23.3904 5.22923 23.9374C5.77621 24.4844 6.51808 24.7917 7.29163 24.7917H13.125V30.625L18.9583 24.7917H26.25C27.0235 24.7917 27.7654 24.4844 28.3124 23.9374C28.8593 23.3904 29.1666 22.6485 29.1666 21.875V8.75C29.1666 7.97645 28.8593 7.23459 28.3124 6.6876C27.7654 6.14062 27.0235 5.83333 26.25 5.83333Z" fill="black"/>
<path d="M13.4954 10.5625V22H12.05V12.3672L9.13599 13.4297V12.125L13.2688 10.5625H13.4954ZM19.1829 20.7891H19.3313C20.1646 20.7891 20.8417 20.6719 21.3625 20.4375C21.8834 20.2031 22.2844 19.888 22.5657 19.4922C22.8469 19.0964 23.0396 18.651 23.1438 18.1562C23.248 17.6562 23.3 17.1432 23.3 16.6172V14.875C23.3 14.3594 23.2402 13.901 23.1204 13.5C23.0058 13.099 22.8443 12.763 22.636 12.4922C22.4329 12.2214 22.2011 12.0156 21.9407 11.875C21.6803 11.7344 21.4042 11.6641 21.1125 11.6641C20.7792 11.6641 20.4797 11.7318 20.2141 11.8672C19.9537 11.9974 19.7323 12.1823 19.55 12.4219C19.373 12.6615 19.2375 12.9427 19.1438 13.2656C19.05 13.5885 19.0032 13.9401 19.0032 14.3203C19.0032 14.6589 19.0448 14.987 19.1282 15.3047C19.2115 15.6224 19.3391 15.9089 19.511 16.1641C19.6829 16.4193 19.8964 16.6224 20.1516 16.7734C20.412 16.9193 20.7167 16.9922 21.0657 16.9922C21.3886 16.9922 21.6907 16.9297 21.9719 16.8047C22.2584 16.6745 22.511 16.5 22.7297 16.2812C22.9537 16.0573 23.1308 15.8047 23.261 15.5234C23.3964 15.2422 23.4745 14.9479 23.4954 14.6406H24.1829C24.1829 15.0729 24.0969 15.5 23.925 15.9219C23.7584 16.3385 23.524 16.7188 23.2219 17.0625C22.9198 17.4062 22.5657 17.6823 22.1594 17.8906C21.7532 18.0938 21.3105 18.1953 20.8313 18.1953C20.2688 18.1953 19.7818 18.0859 19.3704 17.8672C18.9589 17.6484 18.6204 17.3568 18.3547 16.9922C18.0943 16.6276 17.899 16.2214 17.7688 15.7734C17.6438 15.3203 17.5813 14.862 17.5813 14.3984C17.5813 13.8568 17.6568 13.349 17.8079 12.875C17.9589 12.401 18.1829 11.9844 18.4797 11.625C18.7766 11.2604 19.1438 10.9766 19.5813 10.7734C20.024 10.5703 20.5344 10.4688 21.1125 10.4688C21.7636 10.4688 22.3183 10.599 22.7766 10.8594C23.2349 11.1198 23.6073 11.4688 23.8938 11.9062C24.1855 12.3438 24.399 12.8359 24.5344 13.3828C24.6698 13.9297 24.7375 14.4922 24.7375 15.0703V15.5938C24.7375 16.1823 24.6985 16.7812 24.6204 17.3906C24.5474 17.9948 24.4042 18.5729 24.1907 19.125C23.9823 19.6771 23.6777 20.1719 23.2766 20.6094C22.8756 21.0417 22.3521 21.3854 21.7063 21.6406C21.0657 21.8906 20.274 22.0156 19.3313 22.0156H19.1829V20.7891Z" fill="black"/>
</svg>
